<svg width="54" height="42" viewBox="0 0 54 42" fill="none" xmlns="http://www.w3.org/2000/svg">
<path d="M52.9474 1.08967C52.9339 0.868359 52.8398 0.659673 52.6828 0.503105C52.5258 0.346536 52.3169 0.252949 52.0955 0.240056C40.7108 -0.439631 31.6052 2.98146 27.7355 9.36826C25.0984 13.7228 25.2048 18.8658 28.0165 23.9158C26.0323 26.0955 24.722 28.8033 24.2442 31.7119L18.9223 26.3899C20.8775 22.7649 20.9183 19.0651 19.0174 15.925C16.2035 11.2782 9.61055 8.79506 1.375 9.27764C1.15483 9.29154 0.947285 9.38527 0.791289 9.54127C0.635293 9.69726 0.541557 9.90481 0.527656 10.125C0.0450775 18.356 2.5282 24.949 7.175 27.7629C8.66638 28.6784 10.3822 29.1631 12.1322 29.163C14.0639 29.1302 15.9569 28.6162 17.6399 27.6677L24.0312 34.0658V40.9375C24.0312 41.1778 24.1267 41.4083 24.2967 41.5783C24.4666 41.7482 24.6971 41.8437 24.9375 41.8437C25.1779 41.8437 25.4084 41.7482 25.5783 41.5783C25.7483 41.4083 25.8438 41.1778 25.8438 40.9375V34.2561C25.8352 30.9104 27.0698 27.6807 29.3079 25.1936C31.9111 26.6346 34.5347 27.3596 37.0654 27.3596C39.4494 27.36 41.787 26.7005 43.8192 25.4542C50.2037 21.5822 53.618 12.4767 52.9474 1.08967ZM8.11297 26.2109C4.20023 23.8456 2.05469 18.211 2.29937 11.0494C9.46102 10.8047 15.0956 12.9502 17.4609 16.8629C18.9291 19.2894 18.954 22.1577 17.5652 25.0396L11.0764 18.5463C10.904 18.3901 10.6782 18.3062 10.4456 18.3119C10.213 18.3176 9.99158 18.4126 9.82709 18.5771C9.66259 18.7416 9.56765 18.963 9.56193 19.1956C9.5562 19.4281 9.64013 19.654 9.79633 19.8264L16.2919 26.3219C13.4077 27.7108 10.5395 27.6858 8.11297 26.2109ZM42.879 23.9C39.2427 26.1022 34.9289 26.0727 30.6265 23.8433L43.7037 10.7639C43.8666 10.5927 43.9562 10.3646 43.9534 10.1283C43.9506 9.89198 43.8556 9.66611 43.6886 9.49885C43.5216 9.33158 43.2959 9.23616 43.0596 9.23293C42.8233 9.2297 42.5951 9.31891 42.4236 9.48154L29.3441 22.561C27.1148 18.2563 27.0785 13.9516 29.2875 10.3085C32.7109 4.64443 40.8603 1.57904 51.1802 2.00724C51.6107 12.3272 48.534 20.4766 42.879 23.9Z" fill="black"/>
</svg>
